<svg width="200" height="200" viewBox="0 0 200 200" xmlns="http://www.w3.org/2000/svg">
  <!-- Fond transparent -->
  <rect width="200" height="200" fill="none"/>
  
  <!-- Cercle de base -->
  <circle cx="100" cy="100" r="80" fill="#4A7729" stroke="#FFFFFF" stroke-width="2"/>
  
  <!-- Élément pierre stylisé -->
  <polygon points="100,40 130,60 130,100 100,120 70,100 70,60" fill="#B3B3B3" stroke="#FFFFFF" stroke-width="1"/>
  
  <!-- Onde symbolisant la Seine -->
  <path d="M40,120 C55,115 65,125 80,120 C95,115 105,125 120,120 C135,115 145,125 160,120" 
        stroke="#0072CE" stroke-width="5" fill="none"/>
  <path d="M40,130 C55,125 65,135 80,130 C95,125 105,135 120,130 C135,125 145,135 160,130" 
        stroke="#0072CE" stroke-width="5" fill="none"/>
  
  <!-- Texte "PIERREFITTE-SUR-SEINE" -->
  <text x="100" y="160" font-family="Arial, sans-serif" font-size="10" font-weight="bold" text-anchor="middle" fill="#FFFFFF">PIERREFITTE-SUR-SEINE</text>
</svg>
